<svg width="494" height="78" viewBox="0 0 494 78" fill="none" xmlns="http://www.w3.org/2000/svg">
<path d="M25.1573 15.544H14.7893V21.016C15.2373 20.4613 15.8773 20.0133 16.7093 19.672C17.5413 19.3093 18.4266 19.128 19.3653 19.128C21.0719 19.128 22.4693 19.5013 23.5573 20.248C24.6453 20.9947 25.4346 21.9547 25.9253 23.128C26.4159 24.28 26.6613 25.5173 26.6613 26.84C26.6613 29.2933 25.9573 31.2667 24.5493 32.76C23.1626 34.2533 21.1786 35 18.5973 35C16.1653 35 14.2239 34.392 12.7733 33.176C11.3226 31.96 10.5013 30.3707 10.3093 28.408H14.6613C14.8533 29.2613 15.2799 29.944 15.9413 30.456C16.6239 30.968 17.4879 31.224 18.5333 31.224C19.7919 31.224 20.7413 30.8293 21.3813 30.04C22.0213 29.2507 22.3413 28.2053 22.3413 26.904C22.3413 25.5813 22.0106 24.5787 21.3493 23.896C20.7093 23.192 19.7599 22.84 18.5013 22.84C17.6053 22.84 16.8586 23.064 16.2613 23.512C15.6639 23.96 15.2373 24.5573 14.9813 25.304H10.6933V11.608H25.1573V15.544ZM29.527 15.8V11.672H37.239V35H32.631V15.8H29.527ZM52.6728 35L46.6568 27.448V35H42.1768V11.32H46.6568V24.792L52.6088 17.272H58.4328L50.6248 26.168L58.4968 35H52.6728ZM77.6003 25.56H71.5523V31.768H67.3283V25.56H61.2803V21.656H67.3283V15.448H71.5523V21.656H77.6003V25.56Z" fill="white"/>
<path d="M10.003 67.16H4.18305L3.18305 70H0.803047L5.78305 56.08H8.42305L13.403 70H11.003L10.003 67.16ZM9.36305 65.3L7.10305 58.84L4.82305 65.3H9.36305ZM17.8484 60.58C18.1817 60.02 18.6217 59.5867 19.1684 59.28C19.7284 58.96 20.3884 58.8 21.1484 58.8V61.16H20.5684C19.675 61.16 18.995 61.3867 18.5284 61.84C18.075 62.2933 17.8484 63.08 17.8484 64.2V70H15.5684V58.98H17.8484V60.58ZM25.9041 60.84V66.94C25.9041 67.3533 25.9975 67.6533 26.1841 67.84C26.3841 68.0133 26.7175 68.1 27.1841 68.1H28.5841V70H26.7841C25.7575 70 24.9708 69.76 24.4241 69.28C23.8775 68.8 23.6041 68.02 23.6041 66.94V60.84H22.3041V58.98H23.6041V56.24H25.9041V58.98H28.5841V60.84H25.9041ZM45.4855 58.98L42.0655 70H39.6655L37.4455 61.86L35.2255 70H32.8255L29.3855 58.98H31.7055L34.0055 67.84L36.3455 58.98H38.7255L40.9655 67.8L43.2455 58.98H45.4855ZM51.9695 70.18C50.9295 70.18 49.9895 69.9467 49.1495 69.48C48.3095 69 47.6495 68.3333 47.1695 67.48C46.6895 66.6133 46.4495 65.6133 46.4495 64.48C46.4495 63.36 46.6961 62.3667 47.1895 61.5C47.6828 60.6333 48.3561 59.9667 49.2095 59.5C50.0628 59.0333 51.0161 58.8 52.0695 58.8C53.1228 58.8 54.0761 59.0333 54.9295 59.5C55.7828 59.9667 56.4561 60.6333 56.9495 61.5C57.4428 62.3667 57.6895 63.36 57.6895 64.48C57.6895 65.6 57.4361 66.5933 56.9295 67.46C56.4228 68.3267 55.7295 69 54.8495 69.48C53.9828 69.9467 53.0228 70.18 51.9695 70.18ZM51.9695 68.2C52.5561 68.2 53.1028 68.06 53.6095 67.78C54.1295 67.5 54.5495 67.08 54.8695 66.52C55.1895 65.96 55.3495 65.28 55.3495 64.48C55.3495 63.68 55.1961 63.0067 54.8895 62.46C54.5828 61.9 54.1761 61.48 53.6695 61.2C53.1628 60.92 52.6161 60.78 52.0295 60.78C51.4428 60.78 50.8961 60.92 50.3895 61.2C49.8961 61.48 49.5028 61.9 49.2095 62.46C48.9161 63.0067 48.7695 63.68 48.7695 64.48C48.7695 65.6667 49.0695 66.5867 49.6695 67.24C50.2828 67.88 51.0495 68.2 51.9695 68.2ZM62.2234 60.58C62.5567 60.02 62.9967 59.5867 63.5434 59.28C64.1034 58.96 64.7634 58.8 65.5234 58.8V61.16H64.9434C64.05 61.16 63.37 61.3867 62.9034 61.84C62.45 62.2933 62.2234 63.08 62.2234 64.2V70H59.9434V58.98H62.2234V60.58ZM71.9791 64.5L77.0591 70H73.9791L69.8991 65.26V70H67.6191V55.2H69.8991V63.8L73.8991 58.98H77.0591L71.9791 64.5ZM82.6934 70.18C81.8267 70.18 81.0467 70.0267 80.3534 69.72C79.6734 69.4 79.1334 68.9733 78.7334 68.44C78.3334 67.8933 78.12 67.2867 78.0934 66.62H80.4534C80.4934 67.0867 80.7134 67.48 81.1134 67.8C81.5267 68.1067 82.04 68.26 82.6534 68.26C83.2934 68.26 83.7867 68.14 84.1334 67.9C84.4934 67.6467 84.6734 67.3267 84.6734 66.94C84.6734 66.5267 84.4734 66.22 84.0734 66.02C83.6867 65.82 83.0667 65.6 82.2134 65.36C81.3867 65.1333 80.7134 64.9133 80.1934 64.7C79.6734 64.4867 79.22 64.16 78.8334 63.72C78.46 63.28 78.2734 62.7 78.2734 61.98C78.2734 61.3933 78.4467 60.86 78.7934 60.38C79.14 59.8867 79.6334 59.5 80.2734 59.22C80.9267 58.94 81.6734 58.8 82.5134 58.8C83.7667 58.8 84.7734 59.12 85.5334 59.76C86.3067 60.3867 86.72 61.2467 86.7734 62.34H84.4934C84.4534 61.8467 84.2534 61.4533 83.8934 61.16C83.5334 60.8667 83.0467 60.72 82.4334 60.72C81.8334 60.72 81.3734 60.8333 81.0534 61.06C80.7334 61.2867 80.5734 61.5867 80.5734 61.96C80.5734 62.2533 80.68 62.5 80.8934 62.7C81.1067 62.9 81.3667 63.06 81.6734 63.18C81.98 63.2867 82.4334 63.4267 83.0334 63.6C83.8334 63.8133 84.4867 64.0333 84.9934 64.26C85.5134 64.4733 85.96 64.7933 86.3334 65.22C86.7067 65.6467 86.9 66.2133 86.9134 66.92C86.9134 67.5467 86.74 68.1067 86.3934 68.6C86.0467 69.0933 85.5534 69.48 84.9134 69.76C84.2867 70.04 83.5467 70.18 82.6934 70.18Z" fill="white" fill-opacity="0.8"/>
<path d="M210.943 28.44C211.113 29.3787 211.497 30.104 212.095 30.616C212.713 31.1067 213.535 31.352 214.559 31.352C215.881 31.352 216.841 30.808 217.439 29.72C218.036 28.6107 218.335 26.7547 218.335 24.152C217.844 24.8347 217.151 25.368 216.255 25.752C215.38 26.136 214.431 26.328 213.407 26.328C212.041 26.328 210.804 26.0507 209.695 25.496C208.607 24.92 207.743 24.0773 207.103 22.968C206.463 21.8373 206.143 20.472 206.143 18.872C206.143 16.504 206.847 14.6267 208.255 13.24C209.663 11.832 211.583 11.128 214.015 11.128C217.044 11.128 219.177 12.0987 220.415 14.04C221.673 15.9813 222.303 18.904 222.303 22.808C222.303 25.5813 222.057 27.8533 221.567 29.624C221.097 31.3947 220.276 32.7387 219.103 33.656C217.951 34.5733 216.372 35.032 214.367 35.032C212.788 35.032 211.444 34.7333 210.335 34.136C209.225 33.5173 208.372 32.7173 207.775 31.736C207.199 30.7333 206.868 29.6347 206.783 28.44H210.943ZM214.335 22.68C215.444 22.68 216.319 22.3387 216.959 21.656C217.599 20.9733 217.919 20.056 217.919 18.904C217.919 17.6453 217.577 16.6747 216.895 15.992C216.233 15.288 215.327 14.936 214.175 14.936C213.023 14.936 212.105 15.2987 211.423 16.024C210.761 16.728 210.431 17.6667 210.431 18.84C210.431 19.9707 210.751 20.8987 211.391 21.624C212.052 22.328 213.033 22.68 214.335 22.68ZM225.246 15.8V11.672H232.958V35H228.35V15.8H225.246ZM248.392 35L242.376 27.448V35H237.896V11.32H242.376V24.792L248.328 17.272H254.152L246.344 26.168L254.216 35H248.392ZM273.319 25.56H267.271V31.768H263.047V25.56H256.999V21.656H263.047V15.448H267.271V21.656H273.319V25.56Z" fill="white"/>
<path d="M224.15 67.16H218.33L217.33 70H214.95L219.93 56.08H222.57L227.55 70H225.15L224.15 67.16ZM223.51 65.3L221.25 58.84L218.97 65.3H223.51ZM231.995 60.58C232.328 60.02 232.768 59.5867 233.315 59.28C233.875 58.96 234.535 58.8 235.295 58.8V61.16H234.715C233.822 61.16 233.142 61.3867 232.675 61.84C232.222 62.2933 231.995 63.08 231.995 64.2V70H229.715V58.98H231.995V60.58ZM240.051 60.84V66.94C240.051 67.3533 240.144 67.6533 240.331 67.84C240.531 68.0133 240.864 68.1 241.331 68.1H242.731V70H240.931C239.904 70 239.117 69.76 238.571 69.28C238.024 68.8 237.751 68.02 237.751 66.94V60.84H236.451V58.98H237.751V56.24H240.051V58.98H242.731V60.84H240.051ZM245.992 57.52C245.579 57.52 245.232 57.38 244.952 57.1C244.672 56.82 244.532 56.4733 244.532 56.06C244.532 55.6467 244.672 55.3 244.952 55.02C245.232 54.74 245.579 54.6 245.992 54.6C246.392 54.6 246.732 54.74 247.012 55.02C247.292 55.3 247.432 55.6467 247.432 56.06C247.432 56.4733 247.292 56.82 247.012 57.1C246.732 57.38 246.392 57.52 245.992 57.52ZM247.112 58.98V70H244.832V58.98H247.112ZM254.105 70.18C253.239 70.18 252.459 70.0267 251.765 69.72C251.085 69.4 250.545 68.9733 250.145 68.44C249.745 67.8933 249.532 67.2867 249.505 66.62H251.865C251.905 67.0867 252.125 67.48 252.525 67.8C252.939 68.1067 253.452 68.26 254.065 68.26C254.705 68.26 255.199 68.14 255.545 67.9C255.905 67.6467 256.085 67.3267 256.085 66.94C256.085 66.5267 255.885 66.22 255.485 66.02C255.099 65.82 254.479 65.6 253.625 65.36C252.799 65.1333 252.125 64.9133 251.605 64.7C251.085 64.4867 250.632 64.16 250.245 63.72C249.872 63.28 249.685 62.7 249.685 61.98C249.685 61.3933 249.859 60.86 250.205 60.38C250.552 59.8867 251.045 59.5 251.685 59.22C252.339 58.94 253.085 58.8 253.925 58.8C255.179 58.8 256.185 59.12 256.945 59.76C257.719 60.3867 258.132 61.2467 258.185 62.34H255.905C255.865 61.8467 255.665 61.4533 255.305 61.16C254.945 60.8667 254.459 60.72 253.845 60.72C253.245 60.72 252.785 60.8333 252.465 61.06C252.145 61.2867 251.985 61.5867 251.985 61.96C251.985 62.2533 252.092 62.5 252.305 62.7C252.519 62.9 252.779 63.06 253.085 63.18C253.392 63.2867 253.845 63.4267 254.445 63.6C255.245 63.8133 255.899 64.0333 256.405 64.26C256.925 64.4733 257.372 64.7933 257.745 65.22C258.119 65.6467 258.312 66.2133 258.325 66.92C258.325 67.5467 258.152 68.1067 257.805 68.6C257.459 69.0933 256.965 69.48 256.325 69.76C255.699 70.04 254.959 70.18 254.105 70.18ZM263.449 60.84V66.94C263.449 67.3533 263.542 67.6533 263.729 67.84C263.929 68.0133 264.262 68.1 264.729 68.1H266.129V70H264.329C263.302 70 262.516 69.76 261.969 69.28C261.422 68.8 261.149 68.02 261.149 66.94V60.84H259.849V58.98H261.149V56.24H263.449V58.98H266.129V60.84H263.449Z" fill="white" fill-opacity="0.8"/>
<path d="M402.09 15.8V11.672H409.802V35H405.194V15.8H402.09ZM414.227 23.032C414.227 19.3413 414.889 16.4507 416.211 14.36C417.555 12.2693 419.774 11.224 422.867 11.224C425.961 11.224 428.169 12.2693 429.491 14.36C430.835 16.4507 431.507 19.3413 431.507 23.032C431.507 26.744 430.835 29.656 429.491 31.768C428.169 33.88 425.961 34.936 422.867 34.936C419.774 34.936 417.555 33.88 416.211 31.768C414.889 29.656 414.227 26.744 414.227 23.032ZM427.091 23.032C427.091 21.4533 426.985 20.1307 426.771 19.064C426.579 17.976 426.174 17.0907 425.555 16.408C424.958 15.7253 424.062 15.384 422.867 15.384C421.673 15.384 420.766 15.7253 420.147 16.408C419.55 17.0907 419.145 17.976 418.931 19.064C418.739 20.1307 418.643 21.4533 418.643 23.032C418.643 24.6533 418.739 26.0187 418.931 27.128C419.123 28.216 419.529 29.1013 420.147 29.784C420.766 30.4453 421.673 30.776 422.867 30.776C424.062 30.776 424.969 30.4453 425.587 29.784C426.206 29.1013 426.611 28.216 426.803 27.128C426.995 26.0187 427.091 24.6533 427.091 23.032ZM434.371 15.8V11.672H442.083V35H437.475V15.8H434.371ZM457.517 35L451.501 27.448V35H447.021V11.32H451.501V24.792L457.453 17.272H463.277L455.469 26.168L463.341 35H457.517ZM482.444 25.56H476.396V31.768H472.172V25.56H466.124V21.656H472.172V15.448H476.396V21.656H482.444V25.56Z" fill="white"/>
<path d="M402.069 67.16H396.249L395.249 70H392.869L397.849 56.08H400.489L405.469 70H403.069L402.069 67.16ZM401.429 65.3L399.169 58.84L396.889 65.3H401.429ZM417.615 58.98V70H415.335V68.7C414.975 69.1533 414.501 69.5133 413.915 69.78C413.341 70.0333 412.728 70.16 412.075 70.16C411.208 70.16 410.428 69.98 409.735 69.62C409.055 69.26 408.515 68.7267 408.115 68.02C407.728 67.3133 407.535 66.46 407.535 65.46V58.98H409.795V65.12C409.795 66.1067 410.041 66.8667 410.535 67.4C411.028 67.92 411.701 68.18 412.555 68.18C413.408 68.18 414.081 67.92 414.575 67.4C415.081 66.8667 415.335 66.1067 415.335 65.12V58.98H417.615ZM419.863 64.48C419.863 63.3467 420.09 62.3533 420.543 61.5C421.01 60.6333 421.65 59.9667 422.463 59.5C423.276 59.0333 424.21 58.8 425.263 58.8C426.596 58.8 427.696 59.12 428.563 59.76C429.443 60.3867 430.036 61.2867 430.343 62.46H427.883C427.683 61.9133 427.363 61.4867 426.923 61.18C426.483 60.8733 425.93 60.72 425.263 60.72C424.33 60.72 423.583 61.0533 423.023 61.72C422.476 62.3733 422.203 63.2933 422.203 64.48C422.203 65.6667 422.476 66.5933 423.023 67.26C423.583 67.9267 424.33 68.26 425.263 68.26C426.583 68.26 427.456 67.68 427.883 66.52H430.343C430.023 67.64 429.423 68.5333 428.543 69.2C427.663 69.8533 426.57 70.18 425.263 70.18C424.21 70.18 423.276 69.9467 422.463 69.48C421.65 69 421.01 68.3333 420.543 67.48C420.09 66.6133 419.863 65.6133 419.863 64.48ZM431.855 64.44C431.855 63.3333 432.082 62.3533 432.535 61.5C433.002 60.6467 433.629 59.9867 434.415 59.52C435.215 59.04 436.095 58.8 437.055 58.8C437.922 58.8 438.675 58.9733 439.315 59.32C439.969 59.6533 440.489 60.0733 440.875 60.58V58.98H443.175V70H440.875V68.36C440.489 68.88 439.962 69.3133 439.295 69.66C438.629 70.0067 437.869 70.18 437.015 70.18C436.069 70.18 435.202 69.94 434.415 69.46C433.629 68.9667 433.002 68.2867 432.535 67.42C432.082 66.54 431.855 65.5467 431.855 64.44ZM440.875 64.48C440.875 63.72 440.715 63.06 440.395 62.5C440.089 61.94 439.682 61.5133 439.175 61.22C438.669 60.9267 438.122 60.78 437.535 60.78C436.949 60.78 436.402 60.9267 435.895 61.22C435.389 61.5 434.975 61.92 434.655 62.48C434.349 63.0267 434.195 63.68 434.195 64.44C434.195 65.2 434.349 65.8667 434.655 66.44C434.975 67.0133 435.389 67.4533 435.895 67.76C436.415 68.0533 436.962 68.2 437.535 68.2C438.122 68.2 438.669 68.0533 439.175 67.76C439.682 67.4667 440.089 67.04 440.395 66.48C440.715 65.9067 440.875 65.24 440.875 64.48ZM448.83 60.84V66.94C448.83 67.3533 448.923 67.6533 449.11 67.84C449.31 68.0133 449.643 68.1 450.11 68.1H451.51V70H449.71C448.683 70 447.897 69.76 447.35 69.28C446.803 68.8 446.53 68.02 446.53 66.94V60.84H445.23V58.98H446.53V56.24H448.83V58.98H451.51V60.84H448.83ZM454.771 57.52C454.358 57.52 454.011 57.38 453.731 57.1C453.451 56.82 453.311 56.4733 453.311 56.06C453.311 55.6467 453.451 55.3 453.731 55.02C454.011 54.74 454.358 54.6 454.771 54.6C455.171 54.6 455.511 54.74 455.791 55.02C456.071 55.3 456.211 55.6467 456.211 56.06C456.211 56.4733 456.071 56.82 455.791 57.1C455.511 57.38 455.171 57.52 454.771 57.52ZM455.891 58.98V70H453.611V58.98H455.891ZM463.665 70.18C462.625 70.18 461.685 69.9467 460.845 69.48C460.005 69 459.345 68.3333 458.865 67.48C458.385 66.6133 458.145 65.6133 458.145 64.48C458.145 63.36 458.391 62.3667 458.885 61.5C459.378 60.6333 460.051 59.9667 460.905 59.5C461.758 59.0333 462.711 58.8 463.765 58.8C464.818 58.8 465.771 59.0333 466.625 59.5C467.478 59.9667 468.151 60.6333 468.645 61.5C469.138 62.3667 469.385 63.36 469.385 64.48C469.385 65.6 469.131 66.5933 468.625 67.46C468.118 68.3267 467.425 69 466.545 69.48C465.678 69.9467 464.718 70.18 463.665 70.18ZM463.665 68.2C464.251 68.2 464.798 68.06 465.305 67.78C465.825 67.5 466.245 67.08 466.565 66.52C466.885 65.96 467.045 65.28 467.045 64.48C467.045 63.68 466.891 63.0067 466.585 62.46C466.278 61.9 465.871 61.48 465.365 61.2C464.858 60.92 464.311 60.78 463.725 60.78C463.138 60.78 462.591 60.92 462.085 61.2C461.591 61.48 461.198 61.9 460.905 62.46C460.611 63.0067 460.465 63.68 460.465 64.48C460.465 65.6667 460.765 66.5867 461.365 67.24C461.978 67.88 462.745 68.2 463.665 68.2ZM477.199 58.8C478.065 58.8 478.839 58.98 479.519 59.34C480.212 59.7 480.752 60.2333 481.139 60.94C481.525 61.6467 481.719 62.5 481.719 63.5V70H479.459V63.84C479.459 62.8533 479.212 62.1 478.719 61.58C478.225 61.0467 477.552 60.78 476.699 60.78C475.845 60.78 475.165 61.0467 474.659 61.58C474.165 62.1 473.919 62.8533 473.919 63.84V70H471.639V58.98H473.919V60.24C474.292 59.7867 474.765 59.4333 475.339 59.18C475.925 58.9267 476.545 58.8 477.199 58.8ZM488.627 70.18C487.76 70.18 486.98 70.0267 486.287 69.72C485.607 69.4 485.067 68.9733 484.667 68.44C484.267 67.8933 484.054 67.2867 484.027 66.62H486.387C486.427 67.0867 486.647 67.48 487.047 67.8C487.46 68.1067 487.974 68.26 488.587 68.26C489.227 68.26 489.72 68.14 490.067 67.9C490.427 67.6467 490.607 67.3267 490.607 66.94C490.607 66.5267 490.407 66.22 490.007 66.02C489.62 65.82 489 65.6 488.147 65.36C487.32 65.1333 486.647 64.9133 486.127 64.7C485.607 64.4867 485.154 64.16 484.767 63.72C484.394 63.28 484.207 62.7 484.207 61.98C484.207 61.3933 484.38 60.86 484.727 60.38C485.074 59.8867 485.567 59.5 486.207 59.22C486.86 58.94 487.607 58.8 488.447 58.8C489.7 58.8 490.707 59.12 491.467 59.76C492.24 60.3867 492.654 61.2467 492.707 62.34H490.427C490.387 61.8467 490.187 61.4533 489.827 61.16C489.467 60.8667 488.98 60.72 488.367 60.72C487.767 60.72 487.307 60.8333 486.987 61.06C486.667 61.2867 486.507 61.5867 486.507 61.96C486.507 62.2533 486.614 62.5 486.827 62.7C487.04 62.9 487.3 63.06 487.607 63.18C487.914 63.2867 488.367 63.4267 488.967 63.6C489.767 63.8133 490.42 64.0333 490.927 64.26C491.447 64.4733 491.894 64.7933 492.267 65.22C492.64 65.6467 492.834 66.2133 492.847 66.92C492.847 67.5467 492.674 68.1067 492.327 68.6C491.98 69.0933 491.487 69.48 490.847 69.76C490.22 70.04 489.48 70.18 488.627 70.18Z" fill="white" fill-opacity="0.8"/>
</svg>
