<svg width="96" height="24" viewBox="0 0 96 24" fill="none" xmlns="http://www.w3.org/2000/svg">
<path d="M12 2.04004C6.5 2.04004 2 6.53004 2 12.06C2 17.06 5.66 21.21 10.44 21.96V14.96H7.9V12.06H10.44V9.85004C10.44 7.34004 11.93 5.96004 14.22 5.96004C15.31 5.96004 16.45 6.15004 16.45 6.15004V8.62004H15.19C13.95 8.62004 13.56 9.39004 13.56 10.18V12.06H16.34L15.89 14.96H13.56V21.96C15.9164 21.5879 18.0622 20.3856 19.6099 18.5701C21.1576 16.7546 22.0054 14.4457 22 12.06C22 6.53004 17.5 2.04004 12 2.04004Z" fill="white" fill-opacity="0.8"/>
<path d="M46 15L51.19 12L46 9V15ZM57.56 7.17C57.69 7.64 57.78 8.27 57.84 9.07C57.91 9.87 57.94 10.56 57.94 11.16L58 12C58 14.19 57.84 15.8 57.56 16.83C57.31 17.73 56.73 18.31 55.83 18.56C55.36 18.69 54.5 18.78 53.18 18.84C51.88 18.91 50.69 18.94 49.59 18.94L48 19C43.81 19 41.2 18.84 40.17 18.56C39.27 18.31 38.69 17.73 38.44 16.83C38.31 16.36 38.22 15.73 38.16 14.93C38.09 14.13 38.06 13.44 38.06 12.84L38 12C38 9.81 38.16 8.2 38.44 7.17C38.69 6.27 39.27 5.69 40.17 5.44C40.64 5.31 41.5 5.22 42.82 5.16C44.12 5.09 45.31 5.06 46.41 5.06L48 5C52.19 5 54.8 5.16 55.83 5.44C56.73 5.69 57.31 6.27 57.56 7.17Z" fill="white" fill-opacity="0.8"/>
<path d="M94.46 6C93.69 6.35 92.86 6.58 92 6.69C92.88 6.16 93.56 5.32 93.88 4.31C93.05 4.81 92.13 5.16 91.16 5.36C90.37 4.5 89.26 4 88 4C85.65 4 83.73 5.92 83.73 8.29C83.73 8.63 83.77 8.96 83.84 9.27C80.28 9.09 77.11 7.38 75 4.79C74.63 5.42 74.42 6.16 74.42 6.94C74.42 8.43 75.17 9.75 76.33 10.5C75.62 10.5 74.96 10.3 74.38 10C74.38 10 74.38 10 74.38 10.03C74.38 12.11 75.86 13.85 77.82 14.24C77.46 14.34 77.08 14.39 76.69 14.39C76.42 14.39 76.15 14.36 75.89 14.31C76.43 16 78 17.26 79.89 17.29C78.43 18.45 76.58 19.13 74.56 19.13C74.22 19.13 73.88 19.11 73.54 19.07C75.44 20.29 77.7 21 80.12 21C88 21 92.33 14.46 92.33 8.79C92.33 8.6 92.33 8.42 92.32 8.23C93.16 7.63 93.88 6.87 94.46 6Z" fill="white" fill-opacity="0.8"/>
</svg>
